<?xml version="1.0" encoding="utf-8"?>
<!-- Generator: Adobe Illustrator 17.0.0, SVG Export Plug-In . SVG Version: 6.00 Build 0)  -->
<!DOCTYPE svg PUBLIC "-//W3C//DTD SVG 1.1//EN" "http://www.w3.org/Graphics/SVG/1.1/DTD/svg11.dtd">
<svg version="1.1" id="Layer_1" xmlns="http://www.w3.org/2000/svg" xmlns:xlink="http://www.w3.org/1999/xlink" x="0px" y="0px"
	 width="841.89px" height="595.28px" viewBox="0 0 841.89 595.28" enable-background="new 0 0 841.89 595.28" xml:space="preserve">
<path fill="#FFFFFF" d="M-25.131,228.031c5.189-9.26,14.082-11.905,23.604-11.97c38.675-0.265,77.357-0.418,116.028,0.044
	c15.065,0.18,27.44,6.417,31.135,23.703c0.417,1.951,0.443,4.011,0.445,6.02c0.028,25.64,0.007,51.279,0.024,76.919
	c0.007,9.96,6.908,17.691,17.602,18.992c8.498,1.034,17.638-2.801,20.88-12.449c0.583-1.735,0.606-3.387,0.608-5.096
	c0.021-18.542,0.004-37.083,0.017-55.625c0.008-11.309,6.922-17.979,17.961-19.869c13.48-2.308,21.837,6.672,21.904,20.425
	c0.103,21.004,0.043,42.008,0.022,63.013c-0.021,22.129-13.189,37.63-35.324,40.07c-18.844,2.076-37.857,1.725-56.742,0.149
	c-15.479-1.292-24.539-13.024-27.722-28.358c-1.145-5.516-1.457-11.124-1.451-16.759c0.028-24.771-0.078-49.542,0.118-74.311
	c0.029-3.642-1.202-4.107-4.353-4.098c-33.751,0.101-67.504-0.081-101.254,0.152c-9.959,0.069-18.275-2.201-23.501-11.39
	C-25.131,234.405-25.131,231.218-25.131,228.031z"/>
<path fill="#FFFFFF" d="M332.972,13.343c0.632,1.567,1.994,0.796,2.999,0.827c37.617,1.149,74.973,4.894,111.481,14.15
	c22.292,5.651,44.349,12.563,64.478,24.259c1.47,0.854,3.162,1.419,5.08,3.991c-3.515-1.615-5.939-2.718-8.353-3.84
	c-25.586-11.899-52.472-19.533-80.147-24.687c-26.41-4.919-53.048-7.106-79.871-8.208c-22.582-0.928-45.087,0.107-67.546,1.51
	c-36.468,2.279-72.631,7.027-107.914,17.158c-37.554,10.783-71.079,28.974-99.81,55.36C59.913,106.22,49.444,121.18,44.16,139.072
	c-2.058,6.969-1.328,14.325-1.859,21.507c-0.941,12.718-0.527,25.454-0.508,38.182c0.005,3.016-0.373,4.599-3.891,4.124
	c-3.813-0.515-8.97,1.623-11.163-0.887c-1.884-2.157-0.544-7.16-0.569-10.906c-0.058-8.529-0.138-17.042-0.726-25.573
	c-1.494-21.689,6.391-40.154,19.722-56.902c31.542-39.626,72.631-64.464,120.64-78.761c18.739-5.58,37.857-9.196,57.299-11.38
	c18.488-2.077,36.969-3.985,55.586-4.287c0.778-0.013,1.796,0.372,2.13-0.846C298.205,13.343,315.588,13.343,332.972,13.343z"/>
<path fill="#FFFFFF" d="M380.276,298.364c-14.771,14.368-29.493,28.691-44.221,43.006c-1.135,1.103-2.265,2.223-3.492,3.219
	c-6.916,5.612-12.129,5.675-18.966,0.041c-10.2-8.404-18.557-18.644-27.705-28.096c-6.001-6.2-11.832-12.564-17.936-19.065
	c-0.928,1.408-0.528,2.711-0.528,3.896c-0.021,42.437,0.006,84.874-0.037,127.311c-0.005,5.033-0.385,10.038-2.886,14.64
	c-3.18,5.85-7.951,8.906-14.665,8.881c-8.1-0.03-16.2-0.007-24.58-0.215c13.15-4.303,14.697-14.95,14.712-26.332
	c0.04-31.284,0.296-62.573-0.111-93.852c-0.263-20.256-0.339-40.51-0.364-60.765c-0.006-5.049,0.674-10.028,2.904-14.683
	c3.833-8.002,10.043-10.575,18.423-7.642c8.073,2.825,13.687,8.962,19.575,14.648c13.641,13.173,27.166,26.467,40.636,39.815
	c1.684,1.668,2.733,1.861,4.583,0.348c17.682-14.453,35.724-28.474,52.283-44.259c5.145-4.904,10.808-9.125,17.751-11.21
	c9.854-2.959,17.058,0.299,21.099,9.728c2.928,6.833,3.966,14.106,3.973,21.494c0.041,49.679,0.055,99.357-0.015,149.036
	c-0.004,3.219,0.46,6.355,1.055,9.429c1.359,7.022,5.828,10.462,13.198,10.238c19.088-0.581,38.186-0.645,57.271-1.072
	c14.596-0.326,29.19-0.543,43.787-0.679c9.547-0.089,14.676-4.733,14.134-14.386c-0.981-17.478-0.073-34.985-1.266-52.447
	c-0.108-1.586,0.096-3.197-0.057-4.776c-0.258-2.65,0.475-3.329,3.024-2.098c2.579,1.245,5.297,2.237,8.016,3.153
	c5.461,1.841,10.741,1.204,16.065-1.95c0.415,4.652,0.962,8.865,1.136,13.094c0.576,14.001,1.21,28.005,1.457,42.014
	c0.247,14.002-6.661,21.125-20.537,22.642c-12.721,1.391-25.451,0.653-38.168,0.723c-34.179,0.189-68.359,0.018-102.539,0.004
	c-4.94-0.002-9.809-0.676-14.516-2.051c-12.977-3.792-21.464-14.282-21.92-27.882c-1.339-39.948-0.255-79.914-0.573-119.871
	C380.266,300.854,380.276,299.316,380.276,298.364z"/>
<path fill="#FFFFFF" d="M657.157,289.25c0,14.742-0.022,28.616,0.012,42.49c0.012,4.94-0.631,9.764-2.296,14.416
	c-1.946,5.436-5.053,9.773-11.319,10.471c-7.599,0.846-13.671-1.757-17.354-8.679c-2.825-5.309-3.658-11.169-3.677-17.102
	c-0.077-23.602-0.052-47.204-0.111-70.805c-0.013-5.005-1.686-9.933-0.18-15.028c2.745-9.287,11.951-14.626,21.246-12.13
	c7.372,1.979,13.16,6.447,18.34,11.762c17.569,18.03,35.069,36.127,52.575,54.217c1.267,1.309,2.373,2.774,4.493,3.675
	c0-7.452,0-14.903,0-22.355c0-9.557-0.026-19.114,0.007-28.67c0.045-13.095,9.156-21.07,21.998-19.028
	c5.39,0.857,8.305,4.751,10.089,9.641c1.907,5.228,2.179,10.746,2.222,16.155c0.197,24.456,0.194,48.915-0.023,73.37
	c-0.035,3.964-0.269,8.015-1.196,12.01c-3.205,13.816-9.862,14.345-20.696,12.453c-9.403-1.642-15.727-8.764-22.174-15.136
	c-16.578-16.386-32.996-32.935-49.482-49.415C659.04,290.97,658.409,290.417,657.157,289.25z"/>
<path fill="#FFFFFF" d="M500.265,297.23c-10.66,16.282-21.204,32.387-32.085,49.006c10.562,0,20.485-0.03,30.408,0.009
	c7.787,0.031,11.679,4.897,9.926,12.418c-0.977,4.191-3.864,6.582-8.015,6.622c-16.368,0.156-32.74,0.229-49.105-0.008
	c-6.51-0.094-11.003-7.157-10.178-14.577c0.751-6.76,3.608-12.684,6.863-18.455c10.015-17.753,21.281-34.666,34.368-50.32
	c3.907-4.673,8.213-8.96,13.484-12.138c7.586-4.574,13.571-3.756,19.003,3.278c9.808,12.701,17.055,27.003,24.882,40.933
	c1.262,2.246,2.469,4.522,3.742,6.858c1.393-0.797,0.678-2.076,0.68-3.04c0.051-19.556,0.004-39.112,0.047-58.668
	c0.022-10.103,8.336-18.354,18.066-18.075c7.128,0.204,14.262,6.972,15.636,15.013c0.411,2.404,0.568,4.878,0.572,7.32
	c0.039,25.93,0.057,51.859-0.016,77.789c-0.009,3.296-0.185,6.684-0.947,9.87c-3.369,14.088-13.595,16.967-27.765,12.821
	c-7.444-2.178-12.25-8.082-16.27-14.319c-10.619-16.474-20.986-33.11-31.46-49.678C501.569,299.048,500.97,298.248,500.265,297.23z"
	/>
<path fill="#FFFFFF" d="M833.18,311.427c-4.697,10.907-8.995,21.051-13.441,31.129c-1.846,4.184-3.241,8.734-7.062,11.701
	c-6.079,4.72-12.438,5.416-17.608,2.095c-5.244-3.369-7.981-11.19-6.108-18.078c2.154-7.924,6.064-15.167,9.245-22.682
	c9.889-23.359,20.063-46.596,30.111-69.887c2.737-6.344,5.911-12.225,13.317-14.205c7.826-2.092,13.3-0.19,18.244,6.225
	c4.651,6.036,6.346,13.426,9.476,20.157c11.422,24.563,22.871,49.114,34.283,73.681c2.068,4.451,3.556,9.147,3.373,14.067
	c-0.18,4.836-2.702,8.391-7.399,10.12c-5.747,2.116-11.276,2.089-16.276-1.935c-3.559-2.864-5.985-6.615-7.904-10.696
	c-2.685-5.71-5.336-11.438-7.903-17.202c-0.851-1.911-1.932-2.808-4.193-2.707c-4.623,0.207-9.261,0.062-13.893,0.064
	C838.993,323.278,836.92,321.867,833.18,311.427z M857.296,303.155c-3.741-7.708-7.213-14.863-10.901-22.462
	c-3.82,8.874-7.354,17.085-10.889,25.295C842.227,301.886,849.535,303.354,857.296,303.155z"/>
<path fill="#FFFFFF" d="M218.727,451.486c-6.339,5.369-12.927,7.625-19.633,9.368c-12.002,3.119-24.289,2.588-36.567,2.519
	c-23.571-0.132-47.135-1.465-70.718-0.237c-8.496,0.442-17.027,0.718-25.517-0.697c-16.076-2.678-24.38-12.558-27.148-28.165
	c-2.533-14.281-3.363-28.664-3.39-43.109c-0.072-38.822-0.076-77.644,0.065-116.466c0.013-3.486-0.958-4.306-4.274-4.174
	c-6.62,0.263-13.258,0.078-20.947,0.078c5.859-6.673,12.089-10.732,20.226-11.225c5.602-0.34,11.202-0.496,16.851-0.271
	c4.119,0.164,4.541,1.5,4.533,5.004c-0.109,46.21-0.049,92.42-0.095,138.629c-0.01,10.12,0.004,20.23,2.783,30.062
	c2.455,8.687,6.532,16.613,16.216,18.365c8.336,1.508,16.968,1.502,25.505,0.991c3.169-0.19,6.335-0.621,9.503-0.625
	c36.359-0.051,72.719-0.04,109.078-0.046C215.997,451.486,216.797,451.486,218.727,451.486z"/>
<path fill="#FFFFFF" d="M545.048,207.324c0.023-9.396,7.3-16.678,16.638-16.649c9.313,0.029,17.1,7.903,16.909,17.1
	c-0.189,9.093-7.867,16.715-16.951,16.676C551.586,224.408,544.03,215.397,545.048,207.324z"/>
<path fill="#FFFFFF" d="M857.296,303.155c-7.761,0.199-15.069-1.27-21.79,2.833c3.534-8.211,7.069-16.422,10.889-25.295
	C850.083,288.292,853.555,295.447,857.296,303.155z"/>
</svg>
